<?xml version="1.0" encoding="UTF-8" standalone="no"?><svg xmlns="http://www.w3.org/2000/svg" xmlns:xlink="http://www.w3.org/1999/xlink" fill="#154072" height="62" preserveAspectRatio="xMidYMid meet" version="1" viewBox="0.0 0.0 62.0 62.0" width="62" zoomAndPan="magnify"><g id="change1_1"><path d="M 0 62 L 62 62 L 62 60 L 0 60 L 0 62" fill="inherit"/><path d="M 24 2.851562 C 26.28125 2.285156 28.632812 2 31 2 C 38.484375 2 45.59375 4.847656 51.011719 10.019531 L 51.71875 10.695312 L 52.457031 9.957031 L 53.625 14.625 L 48.957031 13.457031 L 50.308594 12.101562 L 49.566406 11.398438 C 44.53125 6.628906 37.9375 4 31 4 C 28.625 4 26.273438 4.308594 24 4.914062 Z M 24.269531 6.914062 C 26.449219 6.308594 28.714844 6 31 6 C 37.082031 6 42.875 8.179688 47.429688 12.15625 L 45.042969 14.542969 L 56.375 17.375 L 53.542969 6.042969 L 51.675781 7.910156 C 45.976562 2.800781 38.675781 0 31 0 C 28.195312 0 25.414062 0.375 22.734375 1.113281 L 22 1.316406 L 22 7.046875 L 24.046875 6.953125 L 24.269531 6.914062" fill="inherit"/><path d="M 10.019531 10.988281 L 10.695312 10.28125 L 9.957031 9.542969 L 14.625 8.375 L 13.457031 13.042969 L 12.101562 11.6875 L 11.398438 12.433594 C 6.625 17.46875 4 24.0625 4 31 C 4 33.375 4.308594 35.726562 4.917969 38 L 2.851562 38 C 2.285156 35.71875 2 33.367188 2 31 C 2 23.515625 4.847656 16.40625 10.019531 10.988281 Z M 1.113281 39.265625 L 1.316406 40 L 7.046875 40 L 6.953125 37.953125 L 6.917969 37.730469 C 6.308594 35.550781 6 33.285156 6 31 C 6 24.921875 8.179688 19.125 12.15625 14.570312 L 14.542969 16.957031 L 17.375 5.625 L 6.042969 8.457031 L 7.910156 10.324219 C 2.800781 16.023438 0 23.324219 0 31 C 0 33.804688 0.375 36.585938 1.113281 39.265625" fill="inherit"/><path d="M 59.148438 21 C 59.714844 23.28125 60 25.632812 60 28 C 60 35.484375 57.152344 42.59375 51.980469 48.011719 L 51.304688 48.71875 L 52.042969 49.457031 L 47.375 50.625 L 48.542969 45.957031 L 49.898438 47.3125 L 50.601562 46.566406 C 55.371094 41.53125 58 34.9375 58 28 C 58 25.625 57.691406 23.273438 57.085938 21 Z M 55.046875 21.046875 L 55.085938 21.269531 C 55.691406 23.449219 56 25.714844 56 28 C 56 34.078125 53.820312 39.875 49.84375 44.429688 L 47.457031 42.042969 L 44.625 53.375 L 55.957031 50.542969 L 54.089844 48.675781 C 59.199219 42.976562 62 35.675781 62 28 C 62 25.195312 61.625 22.414062 60.886719 19.734375 L 60.683594 19 L 54.953125 19 L 55.046875 21.046875" fill="inherit"/><path d="M 21 38 L 21 40 L 23 40 L 23 38 L 21 38" fill="inherit"/><path d="M 13 40 L 15 40 L 15 38 L 13 38 L 13 40" fill="inherit"/><path d="M 17 40 L 19 40 L 19 38 L 17 38 L 17 40" fill="inherit"/><path d="M 17 44 L 19 44 L 19 42 L 17 42 L 17 44" fill="inherit"/><path d="M 13 44 L 15 44 L 15 42 L 13 42 L 13 44" fill="inherit"/><path d="M 21 44 L 23 44 L 23 42 L 21 42 L 21 44" fill="inherit"/><path d="M 17 48 L 19 48 L 19 46 L 17 46 L 17 48" fill="inherit"/><path d="M 21 48 L 23 48 L 23 46 L 21 46 L 21 48" fill="inherit"/><path d="M 13 48 L 15 48 L 15 46 L 13 46 L 13 48" fill="inherit"/><path d="M 13 52 L 15 52 L 15 50 L 13 50 L 13 52" fill="inherit"/><path d="M 21 52 L 23 52 L 23 50 L 21 50 L 21 52" fill="inherit"/><path d="M 17 52 L 19 52 L 19 50 L 17 50 L 17 52" fill="inherit"/><path d="M 15 32 L 17 32 L 17 30 L 15 30 L 15 32" fill="inherit"/><path d="M 23 32 L 25 32 L 25 30 L 23 30 L 23 32" fill="inherit"/><path d="M 19 32 L 21 32 L 21 30 L 19 30 L 19 32" fill="inherit"/><path d="M 29 30 L 27 30 L 27 32 L 29 32 L 29 30" fill="inherit"/><path d="M 23 28 L 25 28 L 25 26 L 23 26 L 23 28" fill="inherit"/><path d="M 29 26 L 27 26 L 27 28 L 29 28 L 29 26" fill="inherit"/><path d="M 19 28 L 21 28 L 21 26 L 19 26 L 19 28" fill="inherit"/><path d="M 15 28 L 17 28 L 17 26 L 15 26 L 15 28" fill="inherit"/><path d="M 15 24 L 17 24 L 17 22 L 15 22 L 15 24" fill="inherit"/><path d="M 23 24 L 25 24 L 25 22 L 23 22 L 23 24" fill="inherit"/><path d="M 19 24 L 21 24 L 21 22 L 19 22 L 19 24" fill="inherit"/><path d="M 29 22 L 27 22 L 27 24 L 29 24 L 29 22" fill="inherit"/><path d="M 11 36 L 25 36 L 25 54 L 11 54 Z M 13 20 L 31 20 L 31 54 L 27 54 L 27 34 L 13 34 Z M 38 28 L 41 28 L 41 32.109375 C 39.726562 30.808594 37.957031 30 36 30 L 33 30 L 33 25.890625 C 34.273438 27.191406 36.042969 28 38 28 Z M 36 22 C 38.414062 22 40.433594 23.71875 40.898438 26 L 38 26 C 35.585938 26 33.566406 24.28125 33.101562 22 Z M 33.101562 32 L 36 32 C 38.414062 32 40.433594 33.71875 40.898438 36 L 38 36 C 35.585938 36 33.566406 34.28125 33.101562 32 Z M 41 54 L 33 54 L 33 35.890625 C 34.273438 37.191406 36.042969 38 38 38 L 41 38 Z M 48 26 L 50.898438 26 C 50.433594 28.28125 48.414062 30 46 30 L 43.101562 30 C 43.566406 27.71875 45.585938 26 48 26 Z M 48 36 L 50.898438 36 C 50.433594 38.28125 48.414062 40 46 40 L 43.101562 40 C 43.566406 37.71875 45.585938 36 48 36 Z M 43 42 L 46 42 C 49.859375 42 53 38.859375 53 35 L 53 34 L 48 34 C 46.042969 34 44.273438 34.808594 43 36.109375 L 43 32 L 46 32 C 49.859375 32 53 28.859375 53 25 L 53 24 L 48 24 C 46.015625 24 44.222656 24.835938 42.945312 26.167969 C 42.53125 22.703125 39.578125 20 36 20 L 33 20 L 33 18 L 11 18 L 11 34 L 9 34 L 9 54 L 0 54 L 0 56 L 62 56 L 62 54 L 43 54 L 43 42" fill="inherit"/></g></svg>