<?xml version="1.0" encoding="UTF-8" standalone="no"?><svg xmlns="http://www.w3.org/2000/svg" xmlns:xlink="http://www.w3.org/1999/xlink" fill="#000000" height="34.3" preserveAspectRatio="xMidYMid meet" version="1" viewBox="0.0 0.0 61.2 34.3" width="61.2" zoomAndPan="magnify"><defs><clipPath id="a"><path d="M 0 0 L 61.199219 0 L 61.199219 34.339844 L 0 34.339844 Z M 0 0"/></clipPath></defs><g><g clip-path="url(#a)" id="change1_1"><path d="M 57.464844 26.128906 C 57.925781 26.128906 58.300781 26.503906 58.300781 26.964844 C 58.300781 27.425781 57.925781 27.800781 57.464844 27.800781 C 57.003906 27.800781 56.628906 27.425781 56.628906 26.964844 C 56.628906 26.503906 57.003906 26.128906 57.464844 26.128906 Z M 46.433594 26.238281 C 46.894531 26.238281 47.269531 26.613281 47.269531 27.078125 C 47.269531 27.539062 46.894531 27.914062 46.433594 27.914062 C 45.972656 27.914062 45.597656 27.539062 45.597656 27.078125 C 45.597656 26.613281 45.972656 26.238281 46.433594 26.238281 Z M 59.734375 31.285156 C 60.195312 31.285156 60.570312 31.660156 60.570312 32.121094 C 60.570312 32.585938 60.195312 32.960938 59.734375 32.960938 C 59.273438 32.960938 58.894531 32.585938 58.894531 32.121094 C 58.894531 31.660156 59.273438 31.285156 59.734375 31.285156 Z M 35.980469 14.992188 L 25.261719 14.992188 L 25.261719 8.84375 C 25.261719 5.890625 27.667969 3.484375 30.621094 3.484375 C 33.578125 3.484375 35.980469 5.890625 35.980469 8.84375 Z M 32.882812 31.070312 L 28.316406 31.070312 L 29.472656 23.164062 C 28.714844 22.757812 28.203125 21.964844 28.203125 21.046875 C 28.203125 19.722656 29.277344 18.652344 30.601562 18.652344 C 31.925781 18.652344 32.996094 19.722656 32.996094 21.046875 C 32.996094 21.964844 32.484375 22.757812 31.730469 23.164062 Z M 1.46875 32.960938 C 1.003906 32.960938 0.628906 32.585938 0.628906 32.121094 C 0.628906 31.660156 1.003906 31.285156 1.46875 31.285156 C 1.929688 31.285156 2.304688 31.660156 2.304688 32.121094 C 2.304688 32.585938 1.929688 32.960938 1.46875 32.960938 Z M 14.765625 27.914062 C 14.304688 27.914062 13.929688 27.539062 13.929688 27.078125 C 13.929688 26.613281 14.304688 26.238281 14.765625 26.238281 C 15.226562 26.238281 15.601562 26.613281 15.601562 27.078125 C 15.601562 27.539062 15.226562 27.914062 14.765625 27.914062 Z M 3.734375 27.800781 C 3.273438 27.800781 2.898438 27.425781 2.898438 26.964844 C 2.898438 26.503906 3.273438 26.128906 3.734375 26.128906 C 4.199219 26.128906 4.574219 26.503906 4.574219 26.964844 C 4.574219 27.425781 4.199219 27.800781 3.734375 27.800781 Z M 1.46875 22.800781 C 1.003906 22.800781 0.628906 22.425781 0.628906 21.964844 C 0.628906 21.503906 1.003906 21.128906 1.46875 21.128906 C 1.929688 21.128906 2.304688 21.503906 2.304688 21.964844 C 2.304688 22.425781 1.929688 22.800781 1.46875 22.800781 Z M 14.765625 20.257812 C 14.304688 20.257812 13.929688 19.882812 13.929688 19.421875 C 13.929688 18.960938 14.304688 18.585938 14.765625 18.585938 C 15.226562 18.585938 15.601562 18.960938 15.601562 19.421875 C 15.601562 19.882812 15.226562 20.257812 14.765625 20.257812 Z M 6.636719 20.257812 C 6.175781 20.257812 5.796875 19.882812 5.796875 19.421875 C 5.796875 18.960938 6.175781 18.585938 6.636719 18.585938 C 7.097656 18.585938 7.472656 18.960938 7.472656 19.421875 C 7.472656 19.882812 7.097656 20.257812 6.636719 20.257812 Z M 1.46875 17.765625 C 1.003906 17.765625 0.628906 17.390625 0.628906 16.929688 C 0.628906 16.46875 1.003906 16.09375 1.46875 16.09375 C 1.929688 16.09375 2.304688 16.46875 2.304688 16.929688 C 2.304688 17.390625 1.929688 17.765625 1.46875 17.765625 Z M 4.617188 12.578125 C 4.15625 12.578125 3.78125 12.203125 3.78125 11.738281 C 3.78125 11.277344 4.15625 10.902344 4.617188 10.902344 C 5.078125 10.902344 5.457031 11.277344 5.457031 11.738281 C 5.457031 12.203125 5.078125 12.578125 4.617188 12.578125 Z M 12.9375 10.019531 C 12.476562 10.019531 12.101562 9.644531 12.101562 9.183594 C 12.101562 8.722656 12.476562 8.347656 12.9375 8.347656 C 13.398438 8.347656 13.773438 8.722656 13.773438 9.183594 C 13.773438 9.644531 13.398438 10.019531 12.9375 10.019531 Z M 4.175781 3.054688 C 3.714844 3.054688 3.339844 2.675781 3.339844 2.214844 C 3.339844 1.753906 3.714844 1.378906 4.175781 1.378906 C 4.640625 1.378906 5.015625 1.753906 5.015625 2.214844 C 5.015625 2.675781 4.640625 3.054688 4.175781 3.054688 Z M 57.023438 1.378906 C 57.484375 1.378906 57.859375 1.753906 57.859375 2.214844 C 57.859375 2.675781 57.484375 3.054688 57.023438 3.054688 C 56.5625 3.054688 56.1875 2.675781 56.1875 2.214844 C 56.1875 1.753906 56.5625 1.378906 57.023438 1.378906 Z M 48.261719 8.347656 C 48.722656 8.347656 49.097656 8.722656 49.097656 9.183594 C 49.097656 9.644531 48.722656 10.019531 48.261719 10.019531 C 47.800781 10.019531 47.425781 9.644531 47.425781 9.183594 C 47.425781 8.722656 47.800781 8.347656 48.261719 8.347656 Z M 56.582031 10.902344 C 57.042969 10.902344 57.417969 11.277344 57.417969 11.738281 C 57.417969 12.203125 57.042969 12.578125 56.582031 12.578125 C 56.121094 12.578125 55.746094 12.203125 55.746094 11.738281 C 55.746094 11.277344 56.121094 10.902344 56.582031 10.902344 Z M 59.734375 16.09375 C 60.195312 16.09375 60.570312 16.46875 60.570312 16.929688 C 60.570312 17.390625 60.195312 17.765625 59.734375 17.765625 C 59.273438 17.765625 58.894531 17.390625 58.894531 16.929688 C 58.894531 16.46875 59.273438 16.09375 59.734375 16.09375 Z M 54.566406 18.585938 C 55.027344 18.585938 55.402344 18.960938 55.402344 19.421875 C 55.402344 19.882812 55.027344 20.257812 54.566406 20.257812 C 54.101562 20.257812 53.726562 19.882812 53.726562 19.421875 C 53.726562 18.960938 54.101562 18.585938 54.566406 18.585938 Z M 46.433594 18.585938 C 46.894531 18.585938 47.269531 18.960938 47.269531 19.421875 C 47.269531 19.882812 46.894531 20.257812 46.433594 20.257812 C 45.972656 20.257812 45.597656 19.882812 45.597656 19.421875 C 45.597656 18.960938 45.972656 18.585938 46.433594 18.585938 Z M 59.734375 21.128906 C 60.195312 21.128906 60.570312 21.503906 60.570312 21.964844 C 60.570312 22.425781 60.195312 22.800781 59.734375 22.800781 C 59.273438 22.800781 58.894531 22.425781 58.894531 21.964844 C 58.894531 21.503906 59.273438 21.128906 59.734375 21.128906 Z M 58.300781 22.28125 C 58.445312 22.9375 59.03125 23.429688 59.734375 23.429688 C 60.542969 23.429688 61.199219 22.773438 61.199219 21.964844 C 61.199219 21.15625 60.542969 20.496094 59.734375 20.496094 C 59.03125 20.496094 58.445312 20.992188 58.300781 21.648438 L 42.714844 21.648438 L 42.714844 19.722656 L 45 19.722656 C 45.136719 20.386719 45.730469 20.890625 46.433594 20.890625 C 47.242188 20.890625 47.902344 20.230469 47.902344 19.421875 C 47.902344 18.613281 47.242188 17.953125 46.433594 17.953125 C 45.738281 17.953125 45.15625 18.441406 45.003906 19.09375 L 42.714844 19.09375 L 42.714844 17.167969 L 49.078125 17.167969 L 51.648438 19.738281 L 53.132812 19.738281 C 53.277344 20.394531 53.863281 20.890625 54.566406 20.890625 C 55.375 20.890625 56.03125 20.230469 56.03125 19.421875 C 56.03125 18.613281 55.375 17.953125 54.566406 17.953125 C 53.863281 17.953125 53.277344 18.449219 53.132812 19.105469 L 51.90625 19.105469 L 49.339844 16.535156 L 42.632812 16.535156 C 42.375 15.644531 41.550781 14.992188 40.578125 14.992188 L 39.46875 14.992188 L 39.46875 14.609375 L 52.101562 14.609375 L 54.734375 17.246094 L 58.300781 17.246094 C 58.445312 17.902344 59.03125 18.394531 59.734375 18.394531 C 60.542969 18.394531 61.199219 17.738281 61.199219 16.929688 C 61.199219 16.121094 60.542969 15.460938 59.734375 15.460938 C 59.03125 15.460938 58.445312 15.957031 58.300781 16.613281 L 54.996094 16.613281 L 52.363281 13.980469 L 39.46875 13.980469 L 39.46875 12.054688 L 55.148438 12.054688 C 55.292969 12.714844 55.878906 13.207031 56.582031 13.207031 C 57.390625 13.207031 58.046875 12.550781 58.046875 11.738281 C 58.046875 10.929688 57.390625 10.273438 56.582031 10.273438 C 55.878906 10.273438 55.292969 10.765625 55.148438 11.425781 L 39.46875 11.425781 L 39.46875 9.5 L 46.828125 9.5 C 46.972656 10.15625 47.5625 10.652344 48.261719 10.652344 C 49.070312 10.652344 49.730469 9.992188 49.730469 9.183594 C 49.730469 8.375 49.070312 7.714844 48.261719 7.714844 C 47.5625 7.714844 46.972656 8.210938 46.828125 8.867188 L 39.46875 8.867188 L 39.46875 8.84375 C 39.46875 8.191406 39.398438 7.554688 39.261719 6.941406 L 48.394531 6.941406 L 52.804688 2.53125 L 55.589844 2.53125 C 55.734375 3.1875 56.320312 3.683594 57.023438 3.683594 C 57.832031 3.683594 58.488281 3.023438 58.488281 2.214844 C 58.488281 1.40625 57.832031 0.75 57.023438 0.75 C 56.320312 0.75 55.734375 1.242188 55.589844 1.902344 L 52.542969 1.902344 L 48.132812 6.3125 L 39.097656 6.3125 C 38.007812 2.664062 34.621094 0 30.621094 0 C 26.625 0 23.238281 2.664062 22.144531 6.3125 L 13.070312 6.3125 L 8.65625 1.902344 L 5.609375 1.902344 C 5.464844 1.242188 4.878906 0.75 4.175781 0.75 C 3.367188 0.75 2.710938 1.40625 2.710938 2.214844 C 2.710938 3.023438 3.367188 3.683594 4.175781 3.683594 C 4.878906 3.683594 5.464844 3.1875 5.609375 2.53125 L 8.394531 2.53125 L 12.808594 6.941406 L 21.980469 6.941406 C 21.847656 7.554688 21.773438 8.191406 21.773438 8.84375 L 21.773438 8.867188 L 14.371094 8.867188 C 14.226562 8.210938 13.640625 7.714844 12.9375 7.714844 C 12.128906 7.714844 11.472656 8.375 11.472656 9.183594 C 11.472656 9.992188 12.128906 10.652344 12.9375 10.652344 C 13.640625 10.652344 14.226562 10.15625 14.371094 9.5 L 21.773438 9.5 L 21.773438 11.425781 L 6.050781 11.425781 C 5.90625 10.765625 5.320312 10.273438 4.617188 10.273438 C 3.808594 10.273438 3.152344 10.929688 3.152344 11.738281 C 3.152344 12.550781 3.808594 13.207031 4.617188 13.207031 C 5.320312 13.207031 5.90625 12.714844 6.050781 12.054688 L 21.773438 12.054688 L 21.773438 13.980469 L 8.835938 13.980469 L 6.203125 16.613281 L 2.898438 16.613281 C 2.753906 15.957031 2.167969 15.460938 1.46875 15.460938 C 0.660156 15.460938 0 16.121094 0 16.929688 C 0 17.738281 0.660156 18.394531 1.46875 18.394531 C 2.167969 18.394531 2.753906 17.902344 2.898438 17.246094 L 6.464844 17.246094 L 9.097656 14.609375 L 21.773438 14.609375 L 21.773438 14.992188 L 20.667969 14.992188 C 19.691406 14.992188 18.871094 15.644531 18.613281 16.535156 L 11.863281 16.535156 L 9.292969 19.105469 L 8.066406 19.105469 C 7.921875 18.449219 7.335938 17.953125 6.636719 17.953125 C 5.828125 17.953125 5.167969 18.613281 5.167969 19.421875 C 5.167969 20.230469 5.828125 20.890625 6.636719 20.890625 C 7.335938 20.890625 7.921875 20.394531 8.066406 19.738281 L 9.554688 19.738281 L 12.125 17.167969 L 18.527344 17.167969 L 18.527344 19.09375 L 16.195312 19.09375 C 16.046875 18.441406 15.460938 17.953125 14.765625 17.953125 C 13.957031 17.953125 13.296875 18.613281 13.296875 19.421875 C 13.296875 20.230469 13.957031 20.890625 14.765625 20.890625 C 15.472656 20.890625 16.0625 20.386719 16.203125 19.722656 L 18.527344 19.722656 L 18.527344 21.648438 L 2.898438 21.648438 C 2.753906 20.992188 2.167969 20.496094 1.46875 20.496094 C 0.660156 20.496094 0 21.15625 0 21.964844 C 0 22.773438 0.660156 23.429688 1.46875 23.429688 C 2.167969 23.429688 2.753906 22.9375 2.898438 22.28125 L 18.527344 22.28125 L 18.527344 24.207031 L 12.808594 24.207031 L 10.363281 26.648438 L 5.167969 26.648438 C 5.023438 25.992188 4.4375 25.496094 3.734375 25.496094 C 2.925781 25.496094 2.269531 26.15625 2.269531 26.964844 C 2.269531 27.773438 2.925781 28.429688 3.734375 28.429688 C 4.4375 28.429688 5.023438 27.9375 5.167969 27.28125 L 10.625 27.28125 L 13.070312 24.835938 L 18.527344 24.835938 L 18.527344 26.761719 L 16.199219 26.761719 C 16.054688 26.101562 15.464844 25.609375 14.765625 25.609375 C 13.957031 25.609375 13.296875 26.265625 13.296875 27.078125 C 13.296875 27.886719 13.957031 28.542969 14.765625 28.542969 C 15.464844 28.542969 16.054688 28.050781 16.199219 27.390625 L 18.527344 27.390625 L 18.527344 29.316406 L 6.945312 29.316406 L 4.457031 31.808594 L 2.898438 31.808594 C 2.753906 31.148438 2.167969 30.65625 1.46875 30.65625 C 0.660156 30.65625 0 31.3125 0 32.121094 C 0 32.933594 0.660156 33.589844 1.46875 33.589844 C 2.167969 33.589844 2.753906 33.097656 2.898438 32.4375 L 4.714844 32.4375 L 7.207031 29.949219 L 18.527344 29.949219 L 18.527344 32.199219 C 18.527344 33.382812 19.484375 34.339844 20.667969 34.339844 L 40.578125 34.339844 C 41.757812 34.339844 42.714844 33.382812 42.714844 32.199219 L 42.714844 29.949219 L 53.992188 29.949219 L 56.484375 32.4375 L 58.300781 32.4375 C 58.445312 33.097656 59.03125 33.589844 59.734375 33.589844 C 60.542969 33.589844 61.199219 32.933594 61.199219 32.121094 C 61.199219 31.3125 60.542969 30.65625 59.734375 30.65625 C 59.03125 30.65625 58.445312 31.148438 58.300781 31.808594 L 56.746094 31.808594 L 54.253906 29.316406 L 42.714844 29.316406 L 42.714844 27.390625 L 45 27.390625 C 45.144531 28.050781 45.734375 28.542969 46.433594 28.542969 C 47.242188 28.542969 47.902344 27.886719 47.902344 27.078125 C 47.902344 26.265625 47.242188 25.609375 46.433594 25.609375 C 45.734375 25.609375 45.144531 26.101562 45 26.761719 L 42.714844 26.761719 L 42.714844 24.835938 L 48.132812 24.835938 L 50.574219 27.28125 L 56.03125 27.28125 C 56.175781 27.9375 56.761719 28.429688 57.464844 28.429688 C 58.273438 28.429688 58.929688 27.773438 58.929688 26.964844 C 58.929688 26.15625 58.273438 25.496094 57.464844 25.496094 C 56.761719 25.496094 56.175781 25.992188 56.03125 26.648438 L 50.835938 26.648438 L 48.394531 24.207031 L 42.714844 24.207031 L 42.714844 22.28125 L 58.300781 22.28125" fill="#154072"/></g></g></svg>