<?xml version="1.0" encoding="UTF-8" standalone="no"?><svg xmlns="http://www.w3.org/2000/svg" xmlns:xlink="http://www.w3.org/1999/xlink" fill="#154072" height="499.3" preserveAspectRatio="xMidYMid meet" version="1" viewBox="0.0 6.2 512.0 499.3" width="512" zoomAndPan="magnify"><g id="change1_1"><path d="M504,464.675h-24.113V409.92C499.604,391.981,512,366.129,512,337.436c0-28.694-12.396-54.547-32.113-72.486V156.415 c0-4.418-3.582-8-8-8h-65.715c-4.418,0-8,3.582-8,8v84.304c-14.804,2.414-28.503,8.155-40.304,16.431v-38.689c0-4.418-3.582-8-8-8 h-65.714c-4.418,0-8,3.582-8,8v246.214h-40.306V287.433c0-4.418-3.582-8-8-8h-65.715c-4.418,0-8,3.582-8,8v177.242h-40.308v-111.19 c0-4.418-3.582-8-8-8H40.112c-4.418,0-8,3.582-8,8v111.19H8c-4.418,0-8,3.582-8,8v24.813c0,4.418,3.582,8,8,8h496 c4.418,0,8-3.582,8-8v-24.813C512,468.257,508.418,464.675,504,464.675z M463.887,464.675h-49.715v-29.241 c18.141-0.031,35.138-5.021,49.715-13.678V464.675z M357.868,417.72c11.801,8.276,25.5,14.016,40.304,16.431v30.524h-40.304V417.72z M496,337.436c0,45.215-36.785,82-82,82s-82-36.785-82-82c0-45.216,36.785-82.001,82-82.001S496,292.22,496,337.436z M463.887,164.415v88.7c-14.577-8.657-31.574-13.647-49.715-13.678v-75.022H463.887z M292.154,226.461h49.714v44.708 C325.816,288.628,316,311.906,316,337.436c0,25.53,9.816,48.807,25.868,66.266v60.974h-49.714V226.461z M170.134,295.433h49.715 v169.242h-49.715V295.433z M48.112,361.484h49.714v103.19H48.112V361.484z M496,489.488H16v-8.813h480V489.488z M44.718,233.86 c21.217,6.107,43.597,9.112,66.502,9.112c48.7,0,99.748-13.595,146.856-39.875c43.969-24.529,80.642-57.98,106.522-97.076 l21.448,14.385c2.581,1.73,5.933,1.81,8.59,0.204c2.66-1.605,4.15-4.606,3.821-7.696l-10.572-99.25 c-0.261-2.443-1.63-4.633-3.714-5.936s-4.651-1.577-6.963-0.739l-89.27,32.291c-2.835,1.025-4.853,3.558-5.219,6.55 c-0.366,2.993,0.98,5.938,3.484,7.617l22.527,15.107c-27.522,41.518-76.959,87.666-120.354,111.875 c-45.52,25.394-91.028,37.753-139.059,37.753c-0.771,0-1.55-0.003-2.322-0.01c-0.022,0-0.045,0-0.067,0 c-3.97,0-7.344,2.914-7.916,6.85C38.438,228.98,40.875,232.755,44.718,233.86z M196.173,194.402 c47.779-26.654,102.591-78.782,130.33-123.948c2.247-3.659,1.204-8.439-2.361-10.831l-15.909-10.669l64.824-23.448l7.677,72.071 l-14.009-9.396c-1.807-1.211-4.025-1.634-6.147-1.175c-2.123,0.459-3.969,1.763-5.111,3.61 c-24.618,39.789-60.99,73.853-105.185,98.508c-44.085,24.594-91.668,37.49-137.041,37.854 C141.247,220.527,168.729,209.713,196.173,194.402z M455.391,289.237c-0.028,0-0.058,0-0.086,0.001 c-5.698,0.021-11.042,2.263-15.047,6.308l-38.106,38.486l-14.425-14.426c-8.325-8.325-21.869-8.321-30.192,0 c-8.323,8.324-8.323,21.869,0,30.193l29.579,29.578c4.162,4.161,9.629,6.242,15.096,6.242s10.934-2.081,15.096-6.243 c11.206-11.207,22.51-22.672,33.44-33.759c6.59-6.684,13.18-13.367,19.785-20.034c8.268-8.344,8.223-21.865-0.099-30.14 C466.405,291.439,461.067,289.237,455.391,289.237z M459.165,314.322c-6.615,6.677-13.215,13.37-19.813,20.063 c-10.911,11.067-22.194,22.512-33.361,33.679c-2.084,2.088-5.479,2.086-7.563,0l-29.578-29.578c-2.086-2.085-2.086-5.479,0-7.564 c1.042-1.043,2.412-1.564,3.782-1.564s2.739,0.521,3.782,1.563l20.109,20.11c1.501,1.501,3.535,2.344,5.657,2.344 c0.007,0,0.014,0,0.02,0c2.129-0.005,4.168-0.858,5.665-2.371l43.764-44.2c0.993-1.004,2.321-1.56,3.739-1.565 c0.007,0,0.015,0,0.021,0c1.419,0,2.754,0.551,3.761,1.552C461.227,308.854,461.233,312.234,459.165,314.322z"/></g></svg>