<?xml version="1.0" encoding="UTF-8" standalone="no"?><svg xmlns="http://www.w3.org/2000/svg" xmlns:xlink="http://www.w3.org/1999/xlink" fill="#ffffff" height="2109.1" preserveAspectRatio="xMidYMid meet" version="1" viewBox="111.1 213.3 2241.8 2109.1" width="2241.8" zoomAndPan="magnify"><g id="change1_1"><path d="M2280.409,1472.92l-813.526-830.407c-26.623-28.826-64.028-46.687-105.547-46.302l-442.664,4.025 c-51.559-67.964-118.412-135.515-195.348-196.149C573.806,286.374,408.397,213.256,291.55,213.256 c-78.288,0-118.134,32.079-137.778,58.979c-42.686,58.484-33.958,148.443,24.552,253.257 c53.191,95.22,142.502,194.881,251.549,280.761c83.647,65.896,172.307,117.766,254.6,150.729l2.983,351.756 c0.372,41.674,17.06,79.212,43.601,106.192c0.611,0.911,1.221,1.765,1.952,2.454l813.992,830.984 c72.53,73.974,147.608,30.979,218.666-44.183l476.078-503.341C2312.804,1625.661,2352.876,1546.976,2280.409,1472.92z M942.521,893.373c-16.912,23.178-49.979,28.938-76.39,29.515c-0.822-5.539-1.632-10.995-1.632-16.757 c0-52.446,34.688-96.159,81.418-108.672C958.306,838.829,957.629,872.7,942.521,893.373z M472.93,747.189 c-101.646-80.036-184.325-171.98-232.859-258.905c-41.943-75.048-52.9-139.098-29.421-171.289 c17.854-24.502,53.854-29.628,80.9-29.628c102.058,0,250.926,67.357,388.664,175.782c55.076,43.381,104.287,90.289,145.844,137.911 c-79.84,0.803-143.986,68.712-143.284,151.668l1.047,124.411C615.694,846.683,542.9,802.257,472.93,747.189z M972.937,1018.828 c-25.959,0-49.502-9.95-68.153-25.713c50.286-9.208,79.004-33.626,94.589-54.956c25.056-34.342,31.875-79.732,21.861-132.347 c35.508,18.521,60.127,56.279,60.127,100.319C1081.361,968.364,1032.814,1018.828,972.937,1018.828z"/></g></svg>