<?xml version="1.0" encoding="UTF-8" standalone="no"?><svg xmlns="http://www.w3.org/2000/svg" xmlns:xlink="http://www.w3.org/1999/xlink" fill="#000000" height="103.8" preserveAspectRatio="xMidYMid meet" version="1" viewBox="13.1 11.4 102.7 103.8" width="102.7" zoomAndPan="magnify"><g fill="#16bbab" id="change1_1"><path d="M 94.914062 69.4375 C 94.34375 69.75 93.925781 70.273438 93.746094 70.890625 C 93.5625 71.515625 93.636719 72.179688 93.949219 72.746094 L 98.402344 80.855469 C 99.261719 82.441406 99.230469 84.171875 98.332031 85.707031 C 97.363281 87.324219 95.589844 88.320312 93.648438 88.371094 L 81.066406 88.371094 L 81.066406 79.644531 C 81.066406 78.652344 80.464844 77.757812 79.542969 77.386719 C 78.625 77.011719 77.570312 77.234375 76.875 77.949219 L 60.859375 94.503906 C 59.945312 95.449219 59.945312 96.949219 60.859375 97.894531 L 76.875 114.449219 C 77.34375 114.929688 77.980469 115.191406 78.628906 115.191406 C 78.9375 115.191406 79.246094 115.132812 79.542969 115.011719 C 80.464844 114.640625 81.066406 113.746094 81.066406 112.753906 L 81.066406 103 L 95.703125 103 C 102.253906 103 108.421875 99.515625 111.792969 93.910156 L 111.871094 93.78125 C 111.875 93.777344 111.878906 93.769531 111.882812 93.761719 C 115.640625 87.433594 115.785156 79.789062 112.261719 73.300781 L 107.777344 65.15625 C 107.128906 63.980469 105.652344 63.550781 104.46875 64.195312 Z M 107.984375 75.640625 C 110.671875 80.59375 110.5625 86.433594 107.691406 91.273438 L 107.621094 91.386719 C 105.117188 95.542969 100.554688 98.125 95.703125 98.125 L 78.628906 98.125 C 77.28125 98.125 76.191406 99.214844 76.191406 100.5625 L 76.191406 106.726562 L 66.003906 96.199219 L 76.191406 85.671875 L 76.191406 90.808594 C 76.191406 92.15625 77.28125 93.25 78.628906 93.25 L 93.710938 93.246094 C 97.394531 93.152344 100.6875 91.269531 102.527344 88.191406 C 104.308594 85.148438 104.367188 81.628906 102.683594 78.519531 L 99.398438 72.539062 L 104.679688 69.640625 L 107.984375 75.640625" fill="inherit"/><path d="M 14.460938 65.058594 L 22.054688 69.226562 L 19.832031 73.304688 C 16.292969 79.777344 16.425781 87.421875 20.199219 93.773438 C 23.625 99.464844 29.878906 103 36.519531 103 L 54.25 103 C 55.59375 103 56.6875 101.910156 56.6875 100.5625 L 56.6875 90.808594 C 56.6875 89.464844 55.59375 88.371094 54.25 88.371094 L 38.488281 88.375 C 36.46875 88.320312 34.746094 87.347656 33.769531 85.710938 C 32.847656 84.164062 32.8125 82.453125 33.667969 80.886719 L 35.886719 76.816406 L 43.492188 81 C 44.359375 81.476562 45.421875 81.386719 46.191406 80.765625 C 46.960938 80.148438 47.285156 79.128906 47.007812 78.179688 L 40.449219 55.703125 C 40.074219 54.410156 38.71875 53.667969 37.429688 54.042969 L 14.953125 60.578125 C 14.003906 60.855469 13.316406 61.671875 13.207031 62.652344 C 13.101562 63.632812 13.59375 64.582031 14.460938 65.058594 Z M 36.453125 59.40625 L 40.675781 73.886719 L 36.089844 71.363281 C 35.523438 71.054688 34.855469 70.976562 34.230469 71.160156 C 33.609375 71.34375 33.085938 71.765625 32.773438 72.335938 L 29.390625 78.546875 C 27.695312 81.640625 27.765625 85.160156 29.582031 88.207031 C 31.410156 91.269531 34.691406 93.152344 38.425781 93.25 L 51.8125 93.25 L 51.8125 98.125 L 36.519531 98.125 C 31.578125 98.125 26.925781 95.496094 24.382812 91.273438 C 21.507812 86.429688 21.40625 80.589844 24.109375 75.640625 L 27.5 69.425781 C 28.140625 68.246094 27.710938 66.769531 26.53125 66.121094 L 21.96875 63.617188 L 36.453125 59.40625" fill="inherit"/><path d="M 101.191406 35.890625 L 93.59375 40.050781 L 84.710938 23.824219 C 84.335938 23.117188 83.929688 22.484375 83.386719 21.675781 C 82.210938 20.011719 80.75 18.492188 79.03125 17.144531 C 71.507812 11.351562 60.570312 11.363281 53.003906 17.1875 C 51.300781 18.519531 49.867188 20.027344 48.582031 21.851562 C 48.21875 22.394531 47.886719 22.941406 47.433594 23.722656 L 36.257812 44.136719 C 35.613281 45.316406 36.046875 46.796875 37.226562 47.445312 L 46.789062 52.679688 C 47.355469 52.988281 48.019531 53.0625 48.644531 52.882812 C 49.265625 52.699219 49.789062 52.277344 50.097656 51.710938 L 61.179688 31.464844 C 61.355469 31.15625 61.523438 30.882812 61.582031 30.785156 C 61.878906 30.371094 62.253906 29.980469 62.683594 29.648438 C 64.5625 28.195312 67.496094 28.179688 69.363281 29.613281 C 69.996094 30.105469 70.316406 30.519531 70.453125 30.714844 C 70.5625 30.875 70.679688 31.042969 70.816406 31.296875 L 79.753906 47.625 L 72.152344 51.789062 C 71.285156 52.261719 70.789062 53.207031 70.898438 54.1875 C 71.003906 55.167969 71.691406 55.988281 72.636719 56.265625 L 95.105469 62.832031 C 95.335938 62.898438 95.566406 62.929688 95.789062 62.929688 C 96.84375 62.929688 97.820312 62.238281 98.128906 61.175781 L 104.703125 38.714844 C 104.980469 37.765625 104.660156 36.746094 103.890625 36.128906 C 103.125 35.511719 102.054688 35.414062 101.191406 35.890625 Z M 94.132812 57.46875 L 79.65625 53.238281 L 84.230469 50.730469 C 85.414062 50.085938 85.847656 48.605469 85.199219 47.421875 L 75.105469 28.984375 C 74.890625 28.578125 74.691406 28.277344 74.398438 27.84375 C 73.890625 27.132812 73.1875 26.414062 72.363281 25.765625 C 72.359375 25.761719 72.351562 25.757812 72.34375 25.753906 C 68.753906 22.988281 63.316406 23.003906 59.695312 25.796875 C 58.878906 26.433594 58.171875 27.164062 57.554688 28.039062 C 57.410156 28.261719 57.191406 28.621094 56.929688 29.074219 L 46.992188 47.230469 L 41.707031 44.339844 L 51.683594 26.113281 C 52.042969 25.488281 52.332031 25.019531 52.605469 24.609375 C 53.574219 23.234375 54.6875 22.0625 55.992188 21.039062 C 61.820312 16.554688 70.257812 16.542969 76.039062 20.996094 C 77.371094 22.039062 78.5 23.214844 79.371094 24.441406 C 79.773438 25.042969 80.101562 25.539062 80.414062 26.132812 L 90.484375 44.53125 C 91.132812 45.710938 92.613281 46.144531 93.792969 45.496094 L 98.371094 42.992188 L 94.132812 57.46875" fill="inherit"/></g></svg>