<?xml version="1.0" encoding="UTF-8" standalone="no"?><svg xmlns="http://www.w3.org/2000/svg" xmlns:xlink="http://www.w3.org/1999/xlink" fill="#ffffff" height="43" preserveAspectRatio="xMidYMid meet" version="1" viewBox="2.0 13.0 60.0 43.0" width="60" zoomAndPan="magnify"><g id="change1_1"><path d="M25,26h-4c-1.336,0-2.591,0.52-3.535,1.464c-0.048,0.047-0.09,0.1-0.127,0.156l-5.172,7.829 c-0.203,0.307-0.221,0.701-0.047,1.025C12.294,36.798,12.632,37,13,37h12c0.553,0,1-0.448,1-1v-9C26,26.448,25.553,26,25,26z M24,35 h-9.141l4.087-6.187C19.499,28.295,20.241,28,21,28h3V35z" fill="inherit"/></g><g id="change1_2"><path d="M19 39H25V41H19z" fill="inherit"/></g><g id="change1_3"><path d="M13,46c-1.654,0-3,1.346-3,3s1.346,3,3,3s3-1.346,3-3S14.654,46,13,46z M13,50c-0.552,0-1-0.449-1-1s0.448-1,1-1 s1,0.449,1,1S13.552,50,13,50z" fill="inherit"/></g><g id="change1_4"><path d="M51,46c-1.654,0-3,1.346-3,3s1.346,3,3,3s3-1.346,3-3S52.654,46,51,46z M51,50c-0.552,0-1-0.449-1-1s0.448-1,1-1 s1,0.449,1,1S51.552,50,51,50z" fill="inherit"/></g><g id="change1_5"><path d="M61,13H28c-0.553,0-1,0.448-1,1v7h-6.154c-1.211,0-2.38,0.439-3.292,1.237c-0.054,0.047-0.103,0.1-0.146,0.157L8.907,33.876 C8.004,34.643,7.077,35,6,35c-4,0-4,4.212-4,7v7c0,2.206,1.794,4,4,4h1.264c1.267,1.811,3.364,3,5.736,3s4.47-1.189,5.736-3h26.528 c1.267,1.811,3.364,3,5.736,3s4.47-1.189,5.736-3H58c2.206,0,4-1.794,4-4v-8V14C62,13.448,61.553,13,61,13z M29,15h31v25H29V15z M13,54c-2.757,0-5-2.243-5-5s2.243-5,5-5s5,2.243,5,5S15.757,54,13,54z M51,54c-2.757,0-5-2.243-5-5s2.243-5,5-5s5,2.243,5,5 S53.757,54,51,54z M58,51h-0.295C57.895,50.366,58,49.695,58,49c0-3.86-3.141-7-7-7s-7,3.14-7,7c0,0.695,0.105,1.366,0.295,2h-24.59 C19.895,50.366,20,49.695,20,49c0-3.86-3.141-7-7-7s-7,3.14-7,7c0,0.695,0.105,1.366,0.295,2H6c-1.103,0-2-0.897-2-2v-7 c0-3.878,0.448-5,2-5c1.6,0,3.007-0.552,4.304-1.687c0.054-0.047,0.102-0.1,0.145-0.157l8.499-11.479 C19.482,23.24,20.152,23,20.846,23H27v18c0,0.552,0.447,1,1,1h23h9v7C60,50.103,59.103,51,58,51z" fill="inherit"/></g><g id="change1_6"><path d="M32 17H57V19H32z" fill="inherit"/></g><g id="change1_7"><path d="M32 21H57V23H32z" fill="inherit"/></g><g id="change1_8"><path d="M32 25H57V27H32z" fill="inherit"/></g><g id="change1_9"><path d="M32 29H57V31H32z" fill="inherit"/></g></svg>