<?xml version="1.0" encoding="UTF-8" standalone="no"?><svg xmlns="http://www.w3.org/2000/svg" xmlns:xlink="http://www.w3.org/1999/xlink" fill="#ffffff" height="60" preserveAspectRatio="xMidYMid meet" version="1" viewBox="2.0 2.0 60.0 60.0" width="60" zoomAndPan="magnify"><g id="change1_1"><path d="M11.976,55.96c0.019,0,0.036,0,0.054,0c1.07-0.014,2.071-0.443,2.818-1.21c0.748-0.767,1.151-1.778,1.138-2.848 c-0.028-2.192-1.82-3.956-4.006-3.956c-0.018,0-0.035,0-0.053,0c-1.07,0.014-2.071,0.443-2.818,1.21s-1.15,1.778-1.137,2.848 c0.014,1.07,0.443,2.071,1.21,2.818C9.936,55.558,10.926,55.96,11.976,55.96z M10.541,50.552c0.374-0.384,0.875-0.599,1.411-0.606 c0.009,0,0.018,0,0.026,0c1.095,0,1.993,0.884,2.007,1.981c0.007,0.536-0.195,1.043-0.569,1.427 c-0.374,0.384-0.876,0.599-1.412,0.606c-0.009,0-0.018,0-0.027,0c-0.525,0-1.021-0.202-1.398-0.57 c-0.385-0.375-0.6-0.875-0.606-1.412S10.167,50.936,10.541,50.552z" fill="inherit"/></g><g id="change1_2"><path d="M2.987,49.319c-0.266,0.003-0.519,0.112-0.703,0.302C2.099,49.811,1.997,50.067,2,50.332l0.046,3.591 c0.007,0.552,0.434,0.96,1.013,0.987l1.295-0.017c0.085,0.223,0.179,0.442,0.282,0.657l-0.903,0.927 c-0.386,0.396-0.378,1.028,0.018,1.414l2.571,2.506c0.19,0.185,0.442,0.284,0.711,0.284c0.266-0.003,0.519-0.112,0.703-0.302 l0.903-0.927c0.218,0.098,0.439,0.186,0.665,0.265l0.016,1.295c0.003,0.265,0.112,0.518,0.302,0.703 C9.808,61.898,10.059,62,10.319,62c0.004,0,0.009,0,0.013,0l3.591-0.046c0.552-0.007,0.994-0.46,0.987-1.013l-0.017-1.295 c0.224-0.084,0.442-0.178,0.657-0.281l0.927,0.903c0.19,0.186,0.409,0.282,0.711,0.284c0.266-0.003,0.519-0.112,0.703-0.302 l2.507-2.572c0.186-0.19,0.287-0.446,0.284-0.711c-0.004-0.265-0.112-0.519-0.302-0.704l-0.928-0.903 c0.098-0.217,0.187-0.439,0.265-0.664l1.295-0.017c0.553-0.007,0.994-0.46,0.987-1.013l-0.046-3.59 c-0.007-0.552-0.473-0.977-1.013-0.987l-1.295,0.017c-0.085-0.223-0.179-0.442-0.282-0.657l0.903-0.927 c0.386-0.396,0.378-1.028-0.018-1.414l-2.571-2.506c-0.19-0.185-0.462-0.287-0.711-0.284c-0.266,0.003-0.519,0.112-0.703,0.302 l-0.903,0.927c-0.218-0.098-0.439-0.186-0.665-0.265l-0.016-1.295c-0.003-0.265-0.112-0.518-0.302-0.703 c-0.189-0.186-0.47-0.293-0.711-0.284l-3.591,0.046c-0.552,0.007-0.994,0.46-0.987,1.013l0.017,1.295 c-0.224,0.084-0.442,0.178-0.657,0.281l-0.927-0.903c-0.189-0.186-0.428-0.285-0.711-0.284c-0.266,0.003-0.519,0.112-0.703,0.302 l-2.507,2.572c-0.186,0.19-0.287,0.446-0.284,0.711c0.004,0.265,0.112,0.519,0.302,0.704l0.928,0.903 c-0.098,0.217-0.187,0.439-0.265,0.664L2.987,49.319z M5.044,51.293c0.457-0.006,0.852-0.32,0.959-0.764 c0.136-0.559,0.35-1.096,0.637-1.596c0.227-0.396,0.156-0.895-0.17-1.213l-0.738-0.719l1.11-1.14l0.738,0.72 c0.328,0.319,0.829,0.375,1.219,0.138c0.488-0.297,1.02-0.525,1.579-0.678c0.439-0.12,0.743-0.521,0.737-0.978l-0.013-1.031 l1.591-0.021l0.013,1.031c0.006,0.456,0.319,0.851,0.763,0.959c0.562,0.137,1.1,0.352,1.597,0.637 c0.396,0.227,0.895,0.158,1.214-0.169l0.72-0.738l1.139,1.11l-0.719,0.738c-0.318,0.327-0.376,0.827-0.139,1.217 c0.299,0.492,0.526,1.023,0.678,1.58c0.118,0.439,0.509,0.733,0.978,0.738l1.031-0.013l0.021,1.591l-1.031,0.013 c-0.457,0.006-0.852,0.32-0.959,0.764c-0.136,0.559-0.35,1.096-0.637,1.596c-0.227,0.396-0.156,0.895,0.17,1.213l0.738,0.719 l-1.11,1.14l-0.738-0.72c-0.328-0.318-0.829-0.375-1.219-0.138c-0.488,0.297-1.02,0.525-1.579,0.678 c-0.439,0.12-0.743,0.521-0.737,0.978l0.013,1.031l-1.591,0.021l-0.013-1.031c-0.006-0.456-0.319-0.851-0.763-0.959 c-0.562-0.137-1.1-0.352-1.597-0.637c-0.156-0.089-0.327-0.133-0.498-0.133c-0.263,0-0.522,0.104-0.716,0.302l-0.72,0.738 l-1.139-1.11l0.719-0.738c0.318-0.327,0.376-0.827,0.139-1.217c-0.299-0.492-0.526-1.023-0.678-1.58 c-0.119-0.44-0.545-0.749-0.978-0.738l-1.031,0.013l-0.021-1.591L5.044,51.293z" fill="inherit"/></g><g id="change1_3"><path d="M51.151,14.304l-1.546-0.236l-0.7-1.492C48.74,12.224,48.388,12,48,12s-0.74,0.224-0.905,0.575l-0.7,1.492l-1.546,0.236 c-0.37,0.057-0.678,0.315-0.797,0.671s-0.029,0.748,0.232,1.016l1.147,1.176l-0.273,1.673c-0.062,0.378,0.099,0.758,0.411,0.979 c0.313,0.22,0.727,0.243,1.06,0.058L48,19.118l1.371,0.757C49.521,19.958,49.688,20,49.854,20c0.202,0,0.404-0.062,0.576-0.183 c0.312-0.221,0.473-0.601,0.411-0.979l-0.273-1.673l1.147-1.176c0.262-0.268,0.352-0.66,0.232-1.016S51.521,14.36,51.151,14.304z M48.784,16.131c-0.222,0.227-0.322,0.546-0.271,0.859l0.023,0.138L48.483,17.1c-0.15-0.083-0.316-0.125-0.483-0.125 s-0.333,0.042-0.483,0.125l-0.053,0.028l0.023-0.138c0.051-0.313-0.05-0.632-0.271-0.859l-0.141-0.145l0.149-0.023 c0.329-0.05,0.612-0.262,0.754-0.563L48,15.354l0.021,0.046c0.142,0.302,0.425,0.513,0.754,0.563l0.149,0.023L48.784,16.131z" fill="inherit"/></g><g id="change1_4"><path d="M59,40.142V38c0-1.654-1.346-3-3-3H10c-1.654,0-3-1.346-3-3v-2.142c1.721-0.447,3-2,3-3.858s-1.279-3.411-3-3.858V20 c0-1.654,1.346-3,3-3h15v2c0,0.36,0.193,0.693,0.507,0.87C25.66,19.957,25.83,20,26,20c0.178,0,0.356-0.047,0.515-0.143l5-3 C31.815,16.677,32,16.351,32,16s-0.185-0.677-0.485-0.857l-5-3c-0.31-0.187-0.694-0.19-1.008-0.013C25.193,12.307,25,12.64,25,13v2 H10c-2.757,0-5,2.243-5,5v2.142c-1.721,0.447-3,2-3,3.858s1.279,3.411,3,3.858V32c0,2.757,2.243,5,5,5h46c0.552,0,1,0.449,1,1v2.142 c-1.721,0.447-3,2-3,3.858s1.279,3.411,3,3.858V50c0,0.551-0.448,1-1,1H41.858c-0.447-1.72-1.999-3-3.858-3s-3.411,1.28-3.858,3H24 v2h10.142c0.447,1.72,1.999,3,3.858,3s3.411-1.28,3.858-3H56c1.654,0,3-1.346,3-3v-2.142c1.721-0.447,3-2,3-3.858 S60.721,40.589,59,40.142z M27,14.766L29.057,16L27,17.234V14.766z M4,26c0-1.103,0.897-2,2-2s2,0.897,2,2s-0.897,2-2,2 S4,27.103,4,26z M38,54c-1.103,0-2-0.897-2-2s0.897-2,2-2s2,0.897,2,2S39.103,54,38,54z M58,46c-1.103,0-2-0.897-2-2s0.897-2,2-2 s2,0.897,2,2S59.103,46,58,46z" fill="inherit"/></g><g id="change1_5"><path d="M48,8c-4.411,0-8,3.589-8,8s3.589,8,8,8s8-3.589,8-8S52.411,8,48,8z M48,22c-3.309,0-6-2.691-6-6s2.691-6,6-6s6,2.691,6,6 S51.309,22,48,22z" fill="inherit"/></g><g id="change1_6"><path d="M61,12l-1.702-0.025c-0.135-0.382-0.289-0.755-0.476-1.14l1.198-1.199c0.391-0.391,0.391-1.024,0-1.414l-4.242-4.242 c-0.391-0.391-1.023-0.391-1.414,0l-1.223,1.182C52.779,4.991,52.407,4.838,52,4.698V3c0-0.552-0.447-1-1-1h-6c-0.553,0-1,0.448-1,1 l-0.027,1.703c-0.38,0.135-0.752,0.288-1.138,0.475l-1.199-1.199c-0.391-0.391-1.023-0.391-1.414,0l-4.242,4.242 c-0.391,0.39-0.391,1.023,0,1.414l1.184,1.221c-0.172,0.363-0.326,0.736-0.465,1.143H35c-0.553,0-1,0.448-1,1v6c0,0.552,0.447,1,1,1 l1.702,0.025c0.135,0.382,0.289,0.755,0.476,1.14l-1.198,1.199c-0.391,0.391-0.391,1.024,0,1.414l4.242,4.242 c0.391,0.391,1.023,0.391,1.414,0l1.223-1.182c0.362,0.171,0.734,0.324,1.142,0.463V29c0,0.552,0.447,1,1,1h6c0.553,0,1-0.448,1-1 l0.027-1.703c0.38-0.135,0.752-0.288,1.138-0.475l1.199,1.199c0.391,0.391,1.023,0.391,1.414,0l4.242-4.242 c0.391-0.39,0.391-1.023,0-1.414l-1.184-1.221c0.172-0.363,0.326-0.736,0.465-1.143H61c0.553,0,1-0.448,1-1v-6 C62,12.448,61.553,12,61,12z M60,18h-0.698c-0.843,0-1.603,0.546-1.891,1.36c-0.111,0.316-0.238,0.625-0.382,0.927 c-0.367,0.778-0.215,1.7,0.379,2.292l0.491,0.492l-2.828,2.829l-0.492-0.492c-0.594-0.594-1.516-0.746-2.291-0.378 c-0.302,0.143-0.611,0.27-0.929,0.382C50.546,25.7,50,26.459,50,27.302V28h-4v-0.698c0-0.842-0.546-1.602-1.359-1.89 c-0.317-0.112-0.627-0.24-0.928-0.382c-0.776-0.368-1.697-0.216-2.292,0.377l-0.492,0.492l-2.828-2.829l0.49-0.491 c0.595-0.593,0.747-1.514,0.379-2.294c-0.143-0.3-0.27-0.609-0.382-0.927C38.301,18.546,37.541,18,36.698,18H36v-4h0.698 c0.843,0,1.603-0.546,1.891-1.36c0.111-0.316,0.238-0.625,0.382-0.927c0.367-0.778,0.215-1.7-0.379-2.292l-0.491-0.492l2.828-2.829 l0.492,0.492c0.595,0.594,1.515,0.746,2.291,0.378c0.302-0.143,0.611-0.27,0.929-0.382C45.454,6.3,46,5.541,46,4.698V4h4v0.698 c0,0.842,0.546,1.602,1.359,1.89c0.317,0.112,0.627,0.24,0.928,0.382c0.776,0.368,1.698,0.216,2.292-0.377l0.492-0.492l2.828,2.829 l-0.49,0.491c-0.595,0.593-0.747,1.514-0.379,2.294c0.143,0.3,0.27,0.609,0.382,0.927C57.699,13.454,58.459,14,59.302,14H60V18z" fill="inherit"/></g></svg>