<?xml version="1.0" encoding="UTF-8" standalone="no"?><svg xmlns="http://www.w3.org/2000/svg" xmlns:xlink="http://www.w3.org/1999/xlink" fill="#16bbab" height="60" preserveAspectRatio="xMidYMid meet" version="1" viewBox="2.0 2.0 60.0 60.0" width="60" zoomAndPan="magnify"><g id="change1_1"><path d="M38 18H40V20H38z" fill="inherit"/><path d="M29,52c-1.654,0-3,1.346-3,3s1.346,3,3,3s3-1.346,3-3S30.654,52,29,52z M29,56c-0.551,0-1-0.449-1-1s0.449-1,1-1 s1,0.449,1,1S29.551,56,29,56z" fill="inherit"/><path d="M61,55h-1V42V28V14c0-0.552-0.448-1-1-1H44V6.98C44,5.337,42.663,4,40.98,4C39.337,4,38,5.337,38,6.98V16h2V6.98 C40,6.439,40.439,6,41.02,6C41.561,6,42,6.439,42,6.98V14v14v14v13h-2V45V22h-2v16.388L28.263,6.93C27.351,3.981,24.663,2,21.576,2 H9C7.346,2,6,3.346,6,5v33H3c-0.552,0-1,0.448-1,1v17c0,0.552,0.448,1,1,1h3.09c0.478,2.833,2.942,5,5.91,5s5.431-2.167,5.91-5 h4.385c0.863,2.888,3.541,5,6.705,5s5.842-2.112,6.705-5H39h4h16h2c0.552,0,1-0.448,1-1S61.552,55,61,55z M33.396,30.42L37.64,44 h-5.021l-5.276-10.553L33.396,30.42z M9,4h12.576c2.205,0,4.125,1.416,4.777,3.522L26.501,8H8V5C8,4.449,8.449,4,9,4z M8,10h19 V9.612l5.835,18.852l-2.493,1.246l-0.882-1.323l0.987-0.493c0.494-0.247,0.694-0.848,0.447-1.342 c-0.247-0.493-0.846-0.695-1.342-0.447l-4,2c-0.494,0.247-0.694,0.848-0.447,1.342C25.281,29.798,25.634,30,26.001,30 c0.15,0,0.303-0.034,0.446-0.105l1.21-0.605l0.882,1.323l-2.987,1.493c-0.494,0.247-0.694,0.848-0.447,1.342L30.382,44h-3.847 l-3.703-5.555C22.646,38.167,22.334,38,22,38h-5v-2h4c0.552,0,1-0.448,1-1v-2c0-1.654-1.346-3-3-3h-3v-5c0-1.654-1.346-3-3-3h-2 c-0.552,0-1,0.448-1,1v12c0,0.552,0.448,1,1,1h4v2H8V10z M15,32h4c0.551,0,1,0.449,1,1v1h-8V24h1c0.551,0,1,0.449,1,1v6 C14,31.552,14.448,32,15,32z M12,60c-2.206,0-4-1.794-4-4s1.794-4,4-4s4,1.794,4,4S14.206,60,12,60z M29,60c-2.757,0-5-2.243-5-5 s2.243-5,5-5s5,2.243,5,5S31.757,60,29,60z M29,48c-3.86,0-7,3.14-7,7h-4.083c-0.004-0.022-0.013-0.041-0.016-0.063 c-0.055-0.307-0.134-0.606-0.235-0.895c-0.017-0.05-0.036-0.098-0.054-0.147c-0.109-0.288-0.236-0.567-0.385-0.833 c-0.02-0.036-0.043-0.069-0.063-0.104c-0.162-0.274-0.341-0.538-0.543-0.782c-0.004-0.004-0.008-0.008-0.011-0.013 c-0.203-0.244-0.429-0.468-0.668-0.677c-0.025-0.022-0.049-0.046-0.075-0.068c-0.233-0.197-0.484-0.373-0.745-0.533 c-0.043-0.026-0.086-0.053-0.13-0.079c-0.261-0.151-0.533-0.282-0.817-0.392c-0.049-0.019-0.099-0.037-0.149-0.055 c-0.291-0.105-0.59-0.191-0.899-0.25c-0.039-0.008-0.08-0.011-0.12-0.018C12.679,50.036,12.344,50,12,50s-0.679,0.036-1.007,0.091 c-0.04,0.007-0.08,0.011-0.12,0.018c-0.309,0.059-0.609,0.145-0.899,0.25c-0.05,0.018-0.099,0.035-0.149,0.055 c-0.283,0.111-0.556,0.242-0.817,0.392c-0.044,0.025-0.086,0.052-0.13,0.079c-0.262,0.16-0.512,0.336-0.745,0.533 c-0.026,0.022-0.049,0.046-0.075,0.068c-0.239,0.209-0.464,0.433-0.668,0.677c-0.004,0.004-0.008,0.008-0.011,0.013 C7.178,52.42,7,52.684,6.837,52.958c-0.021,0.035-0.043,0.069-0.063,0.104c-0.15,0.265-0.277,0.544-0.385,0.833 c-0.018,0.049-0.037,0.098-0.054,0.147c-0.1,0.289-0.179,0.588-0.235,0.895C6.096,54.959,6.087,54.978,6.083,55H4V40h3h14.465 l3.703,5.555C25.354,45.833,25.666,46,26,46h6h6v9h-2C36,51.14,32.86,48,29,48z M44,33h14v8H44V33z M58,31H44v-2h14V31z M58,27H44 v-8h14V27z M44,43h14v2H44V43z M58,15v2H44v-2H58z M44,55v-8h14v8H44z" fill="inherit"/><path d="M49 21H53V23H49z" fill="inherit"/><path d="M49 35H53V37H49z" fill="inherit"/><path d="M49 49H53V51H49z" fill="inherit"/><path d="M11 55H13V57H11z" fill="inherit"/><path d="M6 42H8V44H6z" fill="inherit"/><path d="M10 42H12V44H10z" fill="inherit"/></g></svg>